<?xml version="1.0" encoding="utf-8"?>
<!-- Generator: Adobe Illustrator 23.0.2, SVG Export Plug-In . SVG Version: 6.00 Build 0)  -->
<svg version="1.1" id="Layer_1" xmlns="http://www.w3.org/2000/svg" xmlns:xlink="http://www.w3.org/1999/xlink" x="0px" y="0px"
	 viewBox="0 0 205 73" style="enable-background:new 0 0 205 73;" xml:space="preserve">
<style type="text/css">
	.st0{fill:#FFFFFF;}
</style>
<g>
	<path class="st0" d="M37.73,50.95c0,1.57,0.05,2.72,0.16,3.45s0.28,1.3,0.53,1.72s0.61,0.77,1.09,1.05
		c0.48,0.28,1.26,0.56,2.34,0.84v1.72H27.01v-1.72c1.45-0.38,2.43-0.79,2.92-1.25s0.81-1.11,0.97-1.95
		c0.15-0.84,0.23-2.13,0.23-3.87V20.54c0-1.62-0.06-2.79-0.18-3.53c-0.12-0.74-0.31-1.31-0.58-1.72c-0.27-0.41-0.63-0.74-1.07-0.98
		c-0.45-0.25-1.21-0.52-2.29-0.83v-1.72h14.84v1.72c-1.03,0.26-1.78,0.52-2.23,0.77c-0.46,0.26-0.82,0.58-1.09,0.97
		c-0.27,0.39-0.47,0.97-0.6,1.74c-0.13,0.77-0.19,1.97-0.19,3.59V50.95z"/>
	<path class="st0" d="M69.09,60.3c-2.81,0-5.37-0.46-7.68-1.39c-2.31-0.93-4.29-2.37-5.94-4.32s-2.93-4.46-3.83-7.51
		c-0.9-3.05-1.35-6.69-1.35-10.93c0-5.23,0.8-9.71,2.39-13.46c1.59-3.75,3.87-6.6,6.84-8.56c2.96-1.96,6.4-2.94,10.32-2.94
		c4.17,0,7.68,0.92,10.53,2.76c2.85,1.84,4.99,4.55,6.43,8.12c1.44,3.57,2.16,7.93,2.16,13.06c0,5.48-0.82,10.11-2.46,13.89
		c-1.64,3.77-3.96,6.6-6.94,8.47S73.08,60.3,69.09,60.3z M57.53,35.16c0,7.2,1.05,12.67,3.15,16.42c2.1,3.75,5.16,5.63,9.19,5.63
		c2.55,0,4.72-0.81,6.5-2.44c1.78-1.63,3.12-4.01,4.01-7.15c0.89-3.14,1.34-6.81,1.34-11c0-5.11-0.52-9.35-1.56-12.71
		c-1.04-3.36-2.47-5.81-4.27-7.33c-1.81-1.52-3.9-2.29-6.29-2.29c-2.11,0-3.92,0.49-5.43,1.48s-2.77,2.39-3.76,4.2
		c-1,1.82-1.72,4.01-2.18,6.59C57.76,29.13,57.53,32,57.53,35.16z"/>
	<path class="st0" d="M119.02,59.74v-1.72c1.17-0.23,2.04-0.49,2.62-0.77s1-0.67,1.28-1.18s0.42-1.18,0.42-2.02
		c0-0.8-0.09-1.66-0.28-2.58s-0.46-1.96-0.81-3.11l-1.3-4.54h-16.38l-1.2,3.45c-0.61,1.73-1.01,3.05-1.2,3.94
		c-0.19,0.89-0.28,1.7-0.28,2.43c0,1.41,0.36,2.44,1.07,3.09s1.81,1.09,3.29,1.3v1.72H91.24v-1.72c1.31-0.21,2.46-0.97,3.43-2.29
		c0.97-1.31,1.92-3.19,2.83-5.63l14.66-38.92h5.55l11.95,39.2c0.56,1.83,1.06,3.22,1.49,4.18s0.96,1.71,1.56,2.25s1.44,0.94,2.5,1.2
		v1.72H119.02z M105.52,40.75h14.7l-6.68-22.68L105.52,40.75z"/>
	<path class="st0" d="M150.8,33.44h1.05c0.89,0,1.71-0.14,2.44-0.42s1.56-0.81,2.48-1.58s2.31-2.21,4.18-4.32
		c2.25-2.51,3.79-4.32,4.61-5.45c1.03-1.34,1.72-2.46,2.07-3.38c0.28-0.68,0.42-1.34,0.42-1.97c0-0.94-0.27-1.62-0.81-2.06
		c-0.54-0.43-1.28-0.7-2.21-0.79v-1.72h15.33v1.72c-0.75,0.16-1.49,0.45-2.21,0.86c-0.73,0.41-1.47,0.97-2.23,1.69
		c-0.76,0.72-1.88,1.89-3.36,3.53l-11.81,13.29l12.8,18.6c1.36,1.97,2.43,3.35,3.2,4.13s1.51,1.36,2.21,1.72s1.45,0.6,2.25,0.72
		v1.72h-15.5v-1.72c0.87-0.07,1.5-0.23,1.9-0.49s0.6-0.64,0.6-1.16c0-0.42-0.13-0.93-0.4-1.53s-0.7-1.32-1.28-2.16l-8.19-12.2
		c-0.96-1.45-1.66-2.41-2.11-2.88s-0.93-0.81-1.44-1.04c-0.52-0.22-1.21-0.33-2.07-0.33h-1.86v14.73c0,1.57,0.05,2.72,0.16,3.45
		s0.28,1.3,0.53,1.72s0.61,0.77,1.09,1.05s1.26,0.56,2.34,0.84v1.72h-14.8v-1.72c1.45-0.38,2.43-0.79,2.92-1.25s0.81-1.11,0.97-1.95
		s0.23-2.13,0.23-3.87V20.54c0-1.62-0.06-2.79-0.18-3.53s-0.31-1.31-0.58-1.72c-0.27-0.41-0.63-0.74-1.07-0.98s-1.21-0.52-2.29-0.83
		v-1.72h14.8v1.72c-1.03,0.26-1.78,0.52-2.23,0.77c-0.46,0.26-0.82,0.58-1.09,0.97s-0.47,0.97-0.6,1.74s-0.19,1.97-0.19,3.59
		L150.8,33.44z"/>
</g>
</svg>
