<?xml version="1.0" encoding="utf-8"?>
<!-- Generator: Adobe Illustrator 23.0.2, SVG Export Plug-In . SVG Version: 6.00 Build 0)  -->
<svg version="1.1" id="Layer_1" xmlns="http://www.w3.org/2000/svg" xmlns:xlink="http://www.w3.org/1999/xlink" x="0px" y="0px"
	 viewBox="0 0 1250 350" style="enable-background:new 0 0 1250 350;" xml:space="preserve">
<style type="text/css">
	.st0{fill:none;stroke:#9400D3;stroke-width:5;stroke-miterlimit:10;}
	.st1{fill:none;stroke:#4B0082;stroke-width:5;stroke-miterlimit:10;}
	.st2{fill:none;stroke:#0000FF;stroke-width:5;stroke-miterlimit:10;}
	.st3{fill:none;stroke:#00FF00;stroke-width:5;stroke-miterlimit:10;}
	.st4{fill:none;stroke:#FFFF00;stroke-width:5;stroke-miterlimit:10;}
	.st5{fill:none;stroke:#FF7F00;stroke-width:5;stroke-miterlimit:10;}
	.st6{fill:none;stroke:#FF0000;stroke-width:5;stroke-miterlimit:10;}
</style>
<g>
	<circle class="st0" cx="444.9" cy="164.6" r="20"/>
	<circle class="st1" cx="444.9" cy="164.6" r="35"/>
	<circle class="st2" cx="444.9" cy="164.6" r="50"/>
	<circle class="st3" cx="444.9" cy="164.6" r="65"/>
	<circle class="st4" cx="444.9" cy="164.6" r="80"/>
	<circle class="st5" cx="444.9" cy="164.6" r="95"/>
	<circle class="st6" cx="444.9" cy="164.6" r="110"/>
</g>
<g>
	<path d="M38.8,242.8v102.8h-30V78.8h30v28.8C52.8,88,76.8,74,104,74c50.8,0,86,38.4,86,101.2c0,62.4-35.2,101.6-86,101.6
		C77.6,276.8,54.4,264.4,38.8,242.8z M158.4,175.2c0-42.8-23.2-74.4-62-74.4c-23.6,0-47.2,14-57.6,30.8v87.2
		c10.4,16.8,34,31.2,57.6,31.2C135.2,250,158.4,218,158.4,175.2z"/>
	<path d="M237.6,272V78.8h30V110c15.6-20.4,38-35.2,64.4-35.2v30.8c-3.6-0.8-7.2-1.2-12-1.2c-18.4,0-43.6,15.2-52.4,30.8V272H237.6z
		"/>
</g>
<g>
	<path d="M613.8,231.6V105.2h-32V78.8h32V26h30v52.8H683v26.4h-39.2v120c0,14.4,6.4,24.8,19.6,24.8c8.4,0,16.4-3.6,20.4-8l8.8,22.4
		c-7.6,7.2-18.4,12.4-36,12.4C628.2,276.8,613.8,260.4,613.8,231.6z"/>
	<path d="M714.2,175.2c0-56,40-101.2,95.2-101.2c58.4,0,92.8,45.6,92.8,103.6v7.6H745.8c2.4,36.4,28,66.8,69.6,66.8
		c22,0,44.4-8.8,59.6-24.4l14.4,19.6c-19.2,19.2-45.2,29.6-76.8,29.6C755.4,276.8,714.2,235.6,714.2,175.2z M809,98.8
		c-41.2,0-61.6,34.8-63.2,64.4h126.8C872.2,134.4,853,98.8,809,98.8z"/>
	<path d="M1082.2,272l-69.6-86.8l-32,31.6V272h-30V5.2h30v176.4l101.6-102.8h38l-85.6,87.6l86,105.6H1082.2z"/>
	<path d="M1162.2,231.6V105.2h-32V78.8h32V26h30v52.8h39.2v26.4h-39.2v120c0,14.4,6.4,24.8,19.6,24.8c8.4,0,16.4-3.6,20.4-8
		l8.8,22.4c-7.6,7.2-18.4,12.4-36,12.4C1176.6,276.8,1162.2,260.4,1162.2,231.6z"/>
</g>
</svg>
